<svg xmlns="http://www.w3.org/2000/svg" viewBox="0 0 100 100" width="100" height="100">
  <!-- Background Circle -->
  <circle cx="50" cy="50" r="45" fill="#4CAF50" fill-opacity="0.2" />
  
  <!-- Large Tree -->
  <path d="M50 10 L65 40 L60 40 L70 60 L50 60 L50 90 L45 90 L45 60 L25 60 L35 40 L30 40 Z" fill="#2E7D32" />
  
  <!-- Small Tree Left -->
  <path d="M25 30 L35 50 L32 50 L38 62 L25 62 L25 75 L22 75 L22 62 L9 62 L15 50 L12 50 Z" fill="#388E3C" />
  
  <!-- Small Tree Right -->
  <path d="M75 30 L85 50 L82 50 L88 62 L75 62 L75 75 L72 75 L72 62 L59 62 L65 50 L62 50 Z" fill="#388E3C" />
  
  <!-- Ground Line -->
  <path d="M5 90 C15 85, 25 88, 35 86 C45 84, 55 84, 65 86 C75 88, 85 85, 95 90" stroke="#5D4037" stroke-width="2" fill="none" />
</svg>
